<svg xmlns="http://www.w3.org/2000/svg" viewBox="0 0 64 64" role="img" aria-label="Laptop store logo">
  <defs>
    <linearGradient id="bg" x1="8" y1="6" x2="56" y2="58" gradientUnits="userSpaceOnUse">
      <stop stop-color="#0F172A"/>
      <stop offset="0.48" stop-color="#164E63"/>
      <stop offset="1" stop-color="#F97316"/>
    </linearGradient>
    <linearGradient id="screen" x1="18" y1="16" x2="46" y2="42" gradientUnits="userSpaceOnUse">
      <stop stop-color="#ECFEFF"/>
      <stop offset="1" stop-color="#93C5FD"/>
    </linearGradient>
    <filter id="shadow" x="-20%" y="-20%" width="140%" height="140%">
      <feDropShadow dx="0" dy="4" stdDeviation="3" flood-color="#020617" flood-opacity="0.28"/>
    </filter>
  </defs>
  <rect width="64" height="64" rx="18" fill="url(#bg)"/>
  <circle cx="50" cy="14" r="9" fill="#FDBA74" opacity="0.9"/>
  <path d="M12 47C20 39 30 36 43 39C49 40.5 54 43 58 47V64H12Z" fill="#020617" opacity="0.28"/>
  <g filter="url(#shadow)">
    <path d="M17 18.5C17 16.6 18.6 15 20.5 15H43.5C45.4 15 47 16.6 47 18.5V37H17Z" fill="#E2E8F0"/>
    <path d="M20.5 19H43.5V34H20.5Z" fill="url(#screen)"/>
    <path d="M14 39H50L54 47H10Z" fill="#F8FAFC"/>
    <path d="M25 41H39L40.5 44H23.5Z" fill="#CBD5E1"/>
  </g>
  <path d="M24 27L29 22L35 29L39 25L44 31" fill="none" stroke="#0F766E" stroke-width="2.5" stroke-linecap="round" stroke-linejoin="round"/>
  <path d="M41 18.5L45 22.5" stroke="#FDBA74" stroke-width="2.2" stroke-linecap="round"/>
</svg>
